Coordinates
version=1
nRows=29
nColumns=22
inDegrees=yes

Units are S.I. units (second, meters, Newtons, ...)
If the header above contains a line with 'inDegrees', this indicates whether rotational values are in degrees (yes) or radians (no).

endheader
time	pelvis_tilt	pelvis_list	pelvis_rotation	pelvis_tx	pelvis_ty	pelvis_tz	hip_flexion_r	hip_adduction_r	hip_rotation_r	knee_angle_r	ankle_angle_r	subtalar_angle_r	hip_flexion_l	hip_adduction_l	hip_rotation_l	knee_angle_l	ankle_angle_l	subtalar_angle_l	lumbar_extension	lumbar_bending	lumbar_rotation
      2.83000000	     -1.48955417	     -3.26394637	      4.73212699	     -0.47797520	      0.96898922	     -0.31838752	     23.40447990	     -2.01237280	     -6.48400774	    -54.98271871	      5.85033244	      5.14982141	      5.95541640	      0.44232384	      8.66405175	    -16.15976615	     13.39625398	     -0.90826795	     -3.82637972	      1.06410502	     -8.97614472
      2.84000000	     -1.36006569	     -3.29425341	      5.05416237	     -0.47082484	      0.96913767	     -0.31942291	     23.88700158	     -2.07791814	     -6.81442814	    -53.61345171	      6.19070301	      5.16203932	      5.08824734	      0.37252047	      8.87875498	    -15.64877829	     13.60545656	     -0.84375377	     -3.93577222	      1.10576109	     -9.23079665
      2.85000000	     -1.25352066	     -3.33020651	      5.36648977	     -0.46367115	      0.96917621	     -0.32038887	     24.36685304	     -2.12883305	     -7.12601453	    -52.19201698	      6.47164330	      5.19319856	      4.25351670	      0.29259651	      9.09820272	    -15.15173045	     13.80725088	     -0.82696793	     -4.01945017	      1.15444319	     -9.47131147
      2.86000000	     -1.16271112	     -3.37472317	      5.67888174	     -0.45650431	      0.96911667	     -0.32127424	     24.83370673	     -2.16070116	     -7.42222147	    -50.72204891	      6.68035665	      5.24869593	      3.44322807	      0.19730831	      9.32395311	    -14.66669856	     14.00266718	     -0.85819543	     -4.08619292	      1.20852569	     -9.69801916
      2.87000000	     -1.08960949	     -3.42899802	      5.97713395	     -0.44932500	      0.96895483	     -0.32207941	     25.29349642	     -2.17066434	     -7.69455100	    -49.21473942	      6.80587109	      5.32968717	      2.65932870	      0.08780464	      9.54991006	    -14.19626993	     14.19543965	     -0.93655621	     -4.13297786	      1.27261134	     -9.90542767
      2.88000000	     -1.03596957	     -3.49348752	      6.26123358	     -0.44212784	      0.96868578	     -0.32278619	     25.74841677	     -2.15412705	     -7.93615463	    -47.67448210	      6.83656555	      5.43484705	      1.90369311	     -0.03807844	      9.77062188	    -13.74038771	     14.39096264	     -1.05799478	     -4.15840383	      1.34252957	    -10.08728188
      2.89000000	     -0.99629290	     -3.57081348	      6.52611572	     -0.43491001	      0.96831826	     -0.32340090	     26.19311291	     -2.10921348	     -8.14933373	    -46.10647704	      6.76061090	      5.56240240	      1.17254387	     -0.18116056	      9.98123457	    -13.30402757	     14.59062092	     -1.21946941	     -4.16933535	      1.42451779	    -10.24495043
      2.90000000	     -0.97018532	     -3.65992625	      6.76922801	     -0.42766837	      0.96784924	     -0.32392554	     26.62796853	     -2.03367555	     -8.32354665	    -44.51566218	      6.57319979	      5.70658988	      0.46482850	     -0.33982714	     10.17794737	    -12.88691317	     14.80343442	     -1.41862735	     -4.16612631	      1.51821783	    -10.37287810
      2.91000000	     -0.95528765	     -3.75937129	      6.99181132	     -0.42040022	      0.96728170	     -0.32435311	     27.04812524	     -1.92822692	     -8.45970772	    -42.90181965	      6.27242816	      5.85912588	     -0.21657680	     -0.51214713	     10.35963419	    -12.49983498	     15.03117675	     -1.64886904	     -4.15192614	      1.61953150	    -10.47089197
      2.92000000	     -0.93969808	     -3.86264878	      7.18796695	     -0.41311005	      0.96662604	     -0.32469664	     27.44297403	     -1.79743070	     -8.54938087	    -41.27278053	      5.86710449	      6.01475804	     -0.88790511	     -0.68959693	     10.54427678	    -12.14057597	     15.28785277	     -1.92970209	     -4.14373156	      1.72524031	    -10.52828868
      2.93000000	     -0.96048047	     -3.99604175	      7.37326765	     -0.40579411	      0.96585180	     -0.32494845	     27.84731121	     -1.62503642	     -8.61624096	    -39.61983908	      5.33958539	      6.14817351	     -1.48731945	     -0.89948434	     10.68366853	    -11.83357062	     15.52935708	     -2.14541096	     -4.09312432	      1.85931636	    -10.59014233
      2.94000000	     -0.95396539	     -4.12056498	      7.54131711	     -0.39843370	      0.96502784	     -0.32513397	     28.18893859	     -1.43912844	     -8.63511068	    -37.95084092	      4.74946502	      6.26639094	     -2.10567258	     -1.10334642	     10.84203301	    -11.55877541	     15.81544403	     -2.42081936	     -4.07746105	      1.98703220	    -10.61091806
      2.95000000	     -0.99201337	     -4.27023546	      7.69871939	     -0.39105201	      0.96407069	     -0.32523779	     28.54717159	     -1.21785607	     -8.61663229	    -36.26586929	      4.10805684	      6.36367852	     -2.63350909	     -1.33121969	     10.94839895	    -11.35412669	     16.09916372	     -2.60847987	     -4.01196243	      2.13794864	    -10.64811376
      2.96000000	     -0.98138642	     -4.41293580	      7.85395265	     -0.38361272	      0.96309914	     -0.32529355	     28.81222707	     -0.98822503	     -8.56699651	    -34.56699892	      3.47100252	      6.42506043	     -3.19692797	     -1.55974343	     11.08979346	    -11.19158597	     16.42470533	     -2.85075309	     -4.00702140	      2.28751685	    -10.64849819
      2.97000000	     -1.01727975	     -4.56675510	      8.00324932	     -0.37614235	      0.96199947	     -0.32529059	     29.09220733	     -0.74266761	     -8.46656355	    -32.86423193	      2.87235386	      6.47709963	     -3.66970162	     -1.79683993	     11.18207272	    -11.09849796	     16.74582673	     -3.01289928	     -3.94973233	      2.44629207	    -10.67717410
      2.98000000	     -1.02733541	     -4.71228266	      8.15761823	     -0.36861982	      0.96086979	     -0.32526910	     29.30150255	     -0.50099086	     -8.33192874	    -31.15852026	      2.35682471	      6.49875939	     -4.14749951	     -2.03013960	     11.29352262	    -11.05383414	     17.09065793	     -3.16871974	     -3.92601606	      2.60235349	    -10.69205555
      2.99000000	     -1.04042890	     -4.84457220	      8.31544961	     -0.36104470	      0.95967879	     -0.32522304	     29.47523166	     -0.27271865	     -8.15184357	    -29.46659373	      1.95532081	      6.50180004	     -4.60070688	     -2.25256894	     11.40290521	    -11.05397973	     17.43754077	     -3.29215937	     -3.90285371	      2.74680711	    -10.71153937
      3.00000000	     -1.09173423	     -4.95573853	      8.47025554	     -0.35342113	      0.95839253	     -0.32516753	     29.66048405	     -0.07545565	     -7.92044006	    -27.81375605	      1.65369938	      6.51421998	     -5.00746614	     -2.45017872	     11.53021032	    -11.07420817	     17.77727439	     -3.36559521	     -3.84142459	      2.86808819	    -10.72177351
      3.01000000	     -1.06422480	     -5.06755429	      8.65315217	     -0.34568793	      0.95716525	     -0.32512021	     29.70111969	      0.12277425	     -7.67113772	    -26.16357044	      1.56188031	      6.49059557	     -5.46620477	     -2.66745281	     11.62282781	    -11.15539711	     18.11803148	     -3.42201647	     -3.86668050	      3.00712947	    -10.76456606
      3.02000000	     -1.07075957	     -5.14605941	      8.83224165	     -0.33788613	      0.95586489	     -0.32507777	     29.75127380	      0.27530436	     -7.36558166	    -24.57950014	      1.57258590	      6.47957252	     -5.90393722	     -2.84972172	     11.73831416	    -11.22410947	     18.44054509	     -3.42862003	     -3.85689555	      3.11072835	    -10.80579099
      3.03000000	     -1.08079154	     -5.19896852	      9.02097958	     -0.32998710	      0.95453938	     -0.32503694	     29.77312830	      0.38764486	     -7.03370975	    -23.06819812	      1.70180668	      6.48099437	     -6.34194306	     -3.01268221	     11.85963308	    -11.29867626	     18.74015011	     -3.39297861	     -3.84389641	      3.18897360	    -10.85468916
      3.04000000	     -1.09987865	     -5.22899186	      9.21441399	     -0.32197064	      0.95318831	     -0.32501929	     29.77934974	      0.46070141	     -6.68157429	    -21.65233639	      1.90088827	      6.49306548	     -6.79266607	     -3.15834006	     11.99436775	    -11.34912312	     19.02788337	     -3.32712570	     -3.81723957	      3.25032012	    -10.92342797
      3.05000000	     -1.07206722	     -5.22491944	      9.42163707	     -0.31381383	      0.95189940	     -0.32502399	     29.70773825	      0.48882484	     -6.34642561	    -20.34793576	      2.20827736	      6.51076344	     -7.30113367	     -3.28432584	     12.12800573	    -11.40624506	     19.25729733	     -3.18632903	     -3.84271169	      3.28780459	    -10.99171262
      3.06000000	     -1.06497369	     -5.19593365	      9.63335841	     -0.30552697	      0.95058935	     -0.32502521	     29.65326319	      0.47448922	     -6.03089999	    -19.19944349	      2.52636988	      6.52570543	     -7.81004564	     -3.39164076	     12.27891081	    -11.44045279	     19.46229446	     -3.01219795	     -3.84139165	      3.29784313	    -11.08036339
      3.07000000	     -1.07370228	     -5.14091706	      9.85207391	     -0.29711316	      0.94927570	     -0.32502659	     29.62119098	      0.41776722	     -5.75369020	    -18.23732124	      2.82054717	      6.52547978	     -8.32398486	     -3.47927514	     12.46180251	    -11.45250706	     19.64526717	     -2.82989749	     -3.81948752	      3.28160428	    -11.19835095
      3.08000000	     -1.06302160	     -5.08433270	     10.07481821	     -0.28851973	      0.94801632	     -0.32502237	     29.57424010	      0.35211039	     -5.56217797	    -17.46988673	      3.10541039	      6.50751181	     -8.86878833	     -3.57835938	     12.63576021	    -11.46237044	     19.77417608	     -2.58065206	     -3.80967915	      3.27333897	    -11.31201204
      3.09000000	     -1.04273065	     -5.04625522	     10.28864751	     -0.27974653	      0.94680540	     -0.32493769	     29.53409147	      0.31128879	     -5.43936290	    -16.91491710	      3.32532178	      6.44529445	     -9.42215826	     -3.71146224	     12.76415145	    -11.48426005	     19.88237812	     -2.19679825	     -3.79826740	      3.28452633	    -11.42016890
      3.10000000	     -1.04804009	     -4.99809191	     10.51123325	     -0.27084833	      0.94561397	     -0.32483722	     29.55182053	      0.24860582	     -5.40429979	    -16.60596758	      3.42791157	      6.32594641	     -9.95375273	     -3.83686748	     12.94892415	    -11.50772662	     19.95995683	     -1.81210460	     -3.75566529	      3.28505461	    -11.55477683
      3.11000000	     -1.07205982	     -4.94371803	     10.75071318	     -0.26182361	      0.94447153	     -0.32470701	     29.62791384	      0.16642549	     -5.47383852	    -16.55878848	      3.40902725	      6.20016783	    -10.45929626	     -3.96207914	     13.17281896	    -11.54653090	     19.95166386	     -1.49914236	     -3.69021003	      3.27616490	    -11.73298172
